<svg width="163" height="24" viewBox="0 0 163 24" fill="none" xmlns="http://www.w3.org/2000/svg">
<path d="M31.1445 0.603027C31.567 0.603027 31.9168 0.738338 32.194 1.00566C32.4712 1.27628 32.6132 1.62942 32.6132 2.07165V9.69201C32.6132 9.74481 32.6759 9.76791 32.7122 9.72831C33.3656 8.95934 34.1478 8.35539 35.062 7.91645C36.0223 7.45441 37.0586 7.2267 38.1708 7.2267C39.5537 7.2267 40.8045 7.57323 41.9299 8.26298C43.052 8.95274 43.9364 9.90983 44.58 11.1276C45.2235 12.3454 45.5437 13.7052 45.5437 15.2035C45.5437 16.7018 45.1971 18.0582 44.5074 19.2793C43.8176 20.4971 42.8605 21.4575 41.6427 22.1572C40.4249 22.8568 39.0751 23.2067 37.5966 23.2067C36.1181 23.2067 34.7781 22.8568 33.5801 22.1572C32.3788 21.4575 31.4317 20.4971 30.7287 19.2793C30.029 18.0615 29.6792 16.7018 29.6792 15.2035V2.07165C29.6792 1.62942 29.8145 1.27628 30.0818 1.00566C30.3459 0.738338 30.7023 0.603027 31.1445 0.603027ZM37.5933 20.6159C38.5537 20.6159 39.4216 20.3816 40.2005 19.9097C40.9794 19.441 41.5932 18.7909 42.0421 17.9658C42.4942 17.1407 42.7186 16.22 42.7186 15.2002C42.7186 14.1837 42.4942 13.2662 42.0421 12.451C41.5899 11.6359 40.9761 10.9923 40.2005 10.5204C39.4216 10.0517 38.5537 9.81412 37.5933 9.81412C36.6329 9.81412 35.7649 10.0484 34.9861 10.5204C34.2072 10.9923 33.5999 11.6326 33.1577 12.451C32.7155 13.2662 32.4943 14.1837 32.4943 15.2002C32.4943 16.2167 32.7155 17.1407 33.1577 17.9658C33.5999 18.7909 34.2072 19.4377 34.9861 19.9097C35.7649 20.3816 36.6329 20.6159 37.5933 20.6159Z" fill="#6D6D6D"/>
<path d="M60.2691 8.24965C61.4671 8.93281 62.411 9.87669 63.0909 11.0846C63.7707 12.2925 64.114 13.6753 64.114 15.2297C64.114 16.7644 63.7773 18.1373 63.1074 19.3485C62.4341 20.5564 61.5001 21.5036 60.2988 22.1834C59.0975 22.8666 57.7312 23.2065 56.1966 23.2065C54.662 23.2065 53.289 22.8666 52.0778 22.1834C50.8699 21.5036 49.9294 20.5564 49.2561 19.3485C48.5828 18.1406 48.2495 16.7677 48.2495 15.2297C48.2495 13.6753 48.5861 12.2925 49.2561 11.0846C49.9294 9.87669 50.8699 8.92951 52.0778 8.24965C53.2857 7.56979 54.6587 7.22656 56.1966 7.22656C57.7081 7.22656 59.0678 7.56649 60.2691 8.24965ZM53.5597 10.507C52.7808 10.9691 52.1735 11.6126 51.7313 12.4377C51.2891 13.2628 51.068 14.1935 51.068 15.2297C51.068 16.266 51.2891 17.1934 51.7313 18.0086C52.1735 18.8238 52.7808 19.464 53.5597 19.9228C54.3385 20.3848 55.2164 20.6125 56.1933 20.6125C57.1702 20.6125 58.0514 20.3815 58.8269 19.9228C59.6058 19.4607 60.2097 18.8238 60.6421 18.0086C61.0744 17.1934 61.2889 16.266 61.2889 15.2297C61.2889 14.1935 61.0744 13.2628 60.6421 12.4377C60.2097 11.6126 59.6058 10.9691 58.8269 10.507C58.0481 10.045 57.1702 9.81728 56.1933 9.81728C55.2164 9.81728 54.3352 10.0483 53.5597 10.507Z" fill="#6D6D6D"/>
<path d="M78.5167 8.24965C79.7147 8.93281 80.6586 9.87669 81.3384 11.0846C82.0183 12.2925 82.3615 13.6753 82.3615 15.2297C82.3615 16.7644 82.0249 18.1373 81.355 19.3485C80.6817 20.5564 79.7477 21.5036 78.5464 22.1834C77.3451 22.8666 75.9788 23.2065 74.4442 23.2065C72.9095 23.2065 71.5366 22.8666 70.3254 22.1834C69.1175 21.5036 68.1769 20.5564 67.5037 19.3485C66.8304 18.1406 66.4971 16.7677 66.4971 15.2297C66.4971 13.6753 66.8337 12.2925 67.5037 11.0846C68.1769 9.87669 69.1175 8.92951 70.3254 8.24965C71.5333 7.56979 72.9062 7.22656 74.4442 7.22656C75.9557 7.22656 77.3154 7.56649 78.5167 8.24965ZM71.8072 10.507C71.0284 10.9691 70.4211 11.6126 69.9789 12.4377C69.5366 13.2628 69.3155 14.1935 69.3155 15.2297C69.3155 16.266 69.5366 17.1934 69.9789 18.0086C70.4211 18.8238 71.0284 19.464 71.8072 19.9228C72.5861 20.3848 73.464 20.6125 74.4409 20.6125C75.421 20.6125 76.2989 20.3815 77.0745 19.9228C77.8534 19.4607 78.4573 18.8238 78.8896 18.0086C79.322 17.1934 79.5365 16.266 79.5365 15.2297C79.5365 14.1935 79.322 13.2628 78.8896 12.4377C78.4573 11.6126 77.8534 10.9691 77.0745 10.507C76.2956 10.045 75.4177 9.81728 74.4409 9.81728C73.4607 9.81728 72.5828 10.0483 71.8072 10.507Z" fill="#6D6D6D"/>
<path d="M94.1075 7.83089C95.0976 8.23352 95.8798 8.79127 96.454 9.50083C96.7049 9.80776 96.827 10.1147 96.827 10.4216C96.827 10.7483 96.6652 11.0454 96.3385 11.3127C96.1273 11.4678 95.86 11.5437 95.5333 11.5437C95.0349 11.5437 94.5828 11.3622 94.1801 10.9959C93.7016 10.5536 93.1901 10.2434 92.6554 10.0586C92.1175 9.87706 91.464 9.78465 90.6983 9.78465C89.8139 9.78465 89.0911 9.93317 88.5235 10.2302C87.9558 10.5272 87.6753 10.9464 87.6753 11.4843C87.6753 11.8671 87.771 12.1906 87.9624 12.448C88.1538 12.7087 88.5202 12.9463 89.0581 13.1674C89.596 13.3886 90.3716 13.6031 91.3914 13.8143C93.4838 14.2367 94.9656 14.8209 95.8402 15.5701C96.7148 16.3192 97.1504 17.2895 97.1504 18.4776C97.1504 19.3621 96.9095 20.1607 96.4309 20.8835C95.9524 21.603 95.2461 22.1706 94.3154 22.5832C93.3848 22.9957 92.266 23.2036 90.9624 23.2036C89.6554 23.2036 88.4277 23.0023 87.2759 22.5997C86.1241 22.197 85.2232 21.669 84.5697 21.0155C84.3189 20.7647 84.1968 20.4677 84.1968 20.1244C84.1968 19.6624 84.3882 19.2895 84.7743 19.0023C85.1374 18.735 85.474 18.5997 85.7809 18.5997C86.1637 18.5997 86.5301 18.7713 86.8766 19.1179C87.2396 19.5205 87.7875 19.8703 88.5168 20.1673C89.2462 20.4644 90.0251 20.6129 90.8501 20.6129C91.9458 20.6129 92.794 20.4314 93.398 20.065C94.0019 19.702 94.3055 19.2103 94.3055 18.5964C94.3055 18.0024 94.0085 17.5073 93.4145 17.1146C92.8204 16.7218 91.8105 16.3918 90.3914 16.1212C86.705 15.4116 84.8634 13.8935 84.8634 11.5701C84.8634 10.6295 85.1407 9.83416 85.6984 9.1807C86.2562 8.52724 86.9855 8.0388 87.8865 7.71208C88.7875 7.38535 89.7479 7.22363 90.7643 7.22363C91.9986 7.22693 93.1174 7.42825 94.1075 7.83089Z" fill="#6D6D6D"/>
<path d="M108.672 20.6161C108.913 20.8867 109.032 21.2299 109.032 21.6524C109.032 22.0748 108.874 22.4213 108.557 22.6887C108.24 22.9593 107.831 23.0913 107.332 23.0913H106.814C105.874 23.0913 105.015 22.8471 104.237 22.3586C103.458 21.8702 102.85 21.2035 102.408 20.3587C101.966 19.5138 101.745 18.5633 101.745 17.5072V10.4512C101.745 10.4182 101.718 10.3951 101.689 10.3951H100.421C100.019 10.3951 99.6921 10.2796 99.4413 10.0486C99.1905 9.81756 99.0684 9.53044 99.0684 9.18391C99.0684 8.80108 99.1938 8.49415 99.4413 8.26313C99.6921 8.03211 100.016 7.9166 100.421 7.9166H101.689C101.722 7.9166 101.745 7.8902 101.745 7.86049V3.77144C101.745 3.34901 101.88 3.00248 102.148 2.73515C102.415 2.46783 102.761 2.33252 103.184 2.33252C103.606 2.33252 103.953 2.46783 104.22 2.73515C104.487 3.00578 104.623 3.34901 104.623 3.77144V7.86049C104.623 7.8935 104.649 7.9166 104.679 7.9166H107.068C107.471 7.9166 107.798 8.03211 108.048 8.26313C108.299 8.49415 108.421 8.80108 108.421 9.18391C108.421 9.53044 108.296 9.81756 108.048 10.0486C107.798 10.2796 107.474 10.3951 107.068 10.3951H104.679C104.646 10.3951 104.623 10.4215 104.623 10.4512V17.5072C104.623 18.2762 104.834 18.9197 105.256 19.4379C105.679 19.956 106.197 20.2168 106.811 20.2168H107.791C108.141 20.2135 108.431 20.3455 108.672 20.6161Z" fill="#6D6D6D"/>
<path d="M124.655 1.1991C125.575 1.68754 126.301 2.3542 126.829 3.19907C127.358 4.04394 127.622 4.98452 127.622 6.02081C127.622 7.0571 127.295 7.95478 126.641 8.71384C126.014 9.43991 125.242 10.0208 124.315 10.4564C124.268 10.4762 124.272 10.5389 124.321 10.5554C125.717 11.0537 126.757 11.8029 127.447 12.7996C128.156 13.826 128.513 15.0405 128.513 16.4431C128.513 17.6708 128.196 18.7863 127.562 19.783C126.928 20.7797 126.08 21.5651 125.014 22.1295C123.948 22.6971 122.793 22.9777 121.546 22.9777C120.123 22.9777 118.853 22.674 117.731 22.0701C116.609 21.4661 115.731 20.6411 115.097 19.5949C114.463 18.5487 114.146 17.3738 114.146 16.0669C114.146 15.5322 114.348 15.1032 114.75 14.7831C114.873 14.6874 115.021 14.6214 115.176 14.5949C115.698 14.5058 116.11 14.6412 116.424 15.0009C116.674 15.288 116.797 15.6444 116.797 16.0669C116.797 16.8556 116.998 17.5784 117.401 18.2418C117.803 18.9051 118.354 19.4332 119.057 19.8259C119.757 20.2186 120.529 20.4166 121.374 20.4166C122.661 20.4166 123.688 20.0602 124.457 19.3507C125.226 18.6411 125.608 17.6609 125.608 16.4134C125.608 15.6279 125.437 14.9019 125.09 14.2385C124.744 13.5752 124.268 13.057 123.665 12.6841C123.061 12.3112 122.394 12.123 121.665 12.123C121.242 12.123 120.892 11.9778 120.615 11.6907C120.338 11.4036 120.196 11.0471 120.196 10.6247C120.196 10.2023 120.335 9.85244 120.615 9.57522C120.892 9.29799 121.242 9.15938 121.665 9.15938C122.202 9.15938 122.724 9.02077 123.235 8.74025C123.889 8.38382 124.387 7.85577 124.721 7.16601C124.82 6.96469 124.882 6.74688 124.912 6.52576C125.054 5.45646 124.757 4.57859 124.024 3.88883C123.41 3.31458 122.622 3.02415 121.665 3.02415C120.935 3.02415 120.269 3.16937 119.665 3.45649C119.137 3.70731 118.704 4.03404 118.364 4.43008C117.906 4.97132 117.74 5.68418 117.684 6.39374C117.645 6.87889 117.443 7.26832 117.077 7.56205C116.952 7.66435 116.797 7.73036 116.638 7.75346C116.13 7.82937 115.724 7.69736 115.417 7.35743C115.166 7.0802 115.044 6.73037 115.044 6.30794C115.044 5.21224 115.331 4.21886 115.909 3.32778C116.483 2.4367 117.272 1.73374 118.269 1.2255C119.265 0.717256 120.381 0.463135 121.608 0.463135C122.714 0.463135 123.731 0.707356 124.655 1.1991Z" fill="#B1B1B1"/>
<path d="M142.081 10.1809C143.107 10.7684 143.909 11.5769 144.486 12.6132C145.061 13.6495 145.351 14.831 145.351 16.1544C145.351 17.4614 145.064 18.6297 144.486 19.6659C143.912 20.7022 143.11 21.5141 142.081 22.0982C141.054 22.6857 139.886 22.9761 138.582 22.9761C137.259 22.9761 136.081 22.6824 135.054 22.0982C134.028 21.5141 133.226 20.7022 132.648 19.6659C132.074 18.6297 131.784 17.4581 131.784 16.1544C131.784 14.6759 132.147 13.3624 132.879 12.2106L139.417 1.32626C139.764 0.788319 140.203 0.520996 140.741 0.520996C141.183 0.520996 141.546 0.666208 141.836 0.953332C142.123 1.24046 142.269 1.58699 142.269 1.98962C142.269 2.27675 142.193 2.53747 142.038 2.76849L138.094 9.30635H138.582C139.889 9.30305 141.054 9.59347 142.081 10.1809ZM141.463 19.2072C142.213 18.4217 142.586 17.4019 142.586 16.1544C142.586 14.9069 142.213 13.8838 141.463 13.0885C140.714 12.2931 139.744 11.8938 138.556 11.8938C137.384 11.8938 136.424 12.2931 135.678 13.0885C134.929 13.8838 134.556 14.9069 134.556 16.1544C134.556 17.4019 134.926 18.4184 135.665 19.2072C136.404 19.996 137.368 20.3887 138.559 20.3887C139.744 20.3887 140.714 19.996 141.463 19.2072Z" fill="#B1B1B1"/>
<path d="M158.898 1.81455C159.935 2.71553 160.724 4.01254 161.258 5.70228C161.796 7.39203 162.063 9.3986 162.063 11.7187C162.063 14.0421 161.793 16.0487 161.258 17.7351C160.72 19.4249 159.935 20.7219 158.898 21.6229C157.862 22.5238 156.625 22.976 155.182 22.976C152.994 22.976 151.301 21.9859 150.1 20.009C148.899 18.0321 148.301 15.2665 148.301 11.7154C148.301 8.1643 148.902 5.39866 150.1 3.42179C151.298 1.44492 152.994 0.454834 155.182 0.454834C156.621 0.461435 157.862 0.913573 158.898 1.81455ZM152.262 5.71549C151.598 7.24022 151.268 9.24349 151.268 11.7187C151.268 14.2137 151.605 16.217 152.275 17.7219C152.948 19.2301 153.915 19.9826 155.182 19.9826C156.469 19.9826 157.443 19.2235 158.106 17.7087C158.77 16.1939 159.1 14.1972 159.1 11.7187C159.1 9.26329 158.763 7.26662 158.093 5.72869C157.42 4.19405 156.453 3.42509 155.186 3.42509C153.895 3.42839 152.922 4.19075 152.262 5.71549Z" fill="#B1B1B1"/>
<path d="M22.8545 1.96289C22.8741 1.9956 22.8937 2.02831 22.9134 2.06102C22.8937 2.02831 22.8774 1.99233 22.8545 1.96289Z" fill="#FCB813"/>
<path d="M11.9893 7.16406L1.75847 17.3949C0.454859 18.6986 0.454859 20.8305 1.75847 22.1308C3.06208 23.4345 5.19407 23.4345 6.49438 22.1308L16.722 11.9033V7.16406H11.9893Z" fill="#FFB900"/>
<path d="M23.0259 2.25317C23.0357 2.2696 23.0423 2.28931 23.0522 2.30574C23.0423 2.28602 23.0357 2.2696 23.0259 2.25317Z" fill="#FCB813"/>
<path d="M22.1709 1.21362C22.1745 1.21722 22.1817 1.22081 22.1853 1.22441C22.1817 1.22081 22.1781 1.21722 22.1709 1.21362Z" fill="#FCB813"/>
<path d="M22.6562 1.69556C22.6861 1.73204 22.7126 1.77185 22.7425 1.81165C22.7126 1.77185 22.6861 1.73204 22.6562 1.69556Z" fill="#FCB813"/>
<path d="M22.4385 1.45142C22.4352 1.45142 22.4352 1.45142 22.4385 1.45142C22.4519 1.46478 22.4653 1.48147 22.4786 1.49817C22.4653 1.48147 22.4519 1.46478 22.4385 1.45142Z" fill="#FCB813"/>
<path d="M23.2962 4.68573C23.2863 4.71873 23.2797 4.75503 23.2698 4.78804C23.2599 4.82104 23.2467 4.85074 23.2368 4.88044C23.0784 5.35899 22.8144 5.80782 22.4348 6.18406L16.7188 11.9001V14.8275C16.7188 16.6691 18.227 18.1773 20.0685 18.1773C21.9101 18.1773 23.4183 16.6691 23.4183 14.8275V3.81445C23.4183 4.11478 23.3721 4.40851 23.2962 4.68573Z" fill="#FFB900"/>
<path d="M23.2962 4.68555C23.2864 4.71826 23.2798 4.75424 23.27 4.78694C23.2798 4.75424 23.2896 4.72153 23.2962 4.68555Z" fill="#FCB813"/>
<path d="M23.2962 4.68555C23.2864 4.71826 23.2798 4.75424 23.27 4.78694C23.2798 4.75424 23.2896 4.72153 23.2962 4.68555Z" fill="#FCB813"/>
<path d="M23.2368 4.88354C22.788 6.20366 21.5339 7.16404 20.0685 7.16404H16.7188V11.9065L22.4348 6.19046C22.8144 5.81092 23.0784 5.36209 23.2368 4.88354Z" fill="#F7941D"/>
<path d="M17.7024 1.45138C17.7816 1.37218 17.8674 1.29627 17.9532 1.22366C17.9565 1.22036 17.9631 1.21706 17.9664 1.21376C18.5439 0.745124 19.2733 0.4646 20.0687 0.4646H9.04901C7.20745 0.4646 5.69922 1.97283 5.69922 3.81439C5.69922 5.65595 7.20745 7.16417 9.04901 7.16417H11.9896L17.7024 1.45138Z" fill="#FFB900"/>
<path d="M17.9531 1.22441C17.9567 1.22081 17.9639 1.21722 17.9675 1.21362C17.9603 1.21722 17.9567 1.22081 17.9531 1.22441Z" fill="#FCB813"/>
<path d="M17.9531 1.22441C17.9567 1.22081 17.9639 1.21722 17.9675 1.21362C17.9603 1.21722 17.9567 1.22081 17.9531 1.22441Z" fill="#FCB813"/>
<path d="M16.7191 3.81442C16.7191 2.89364 17.0953 2.05867 17.7025 1.45142L11.9897 7.16421H16.7191V3.81442Z" fill="#F7941D"/>
<path d="M22.1714 1.21376C21.5938 0.745124 20.8644 0.4646 20.0691 0.4646C19.2737 0.4646 18.541 0.745124 17.9668 1.21376C19.1879 0.23028 20.9503 0.23028 22.1714 1.21376Z" fill="#FCB813"/>
<path d="M22.1714 1.21376C21.5938 0.745124 20.8644 0.4646 20.0691 0.4646C19.2737 0.4646 18.541 0.745124 17.9668 1.21376C19.1879 0.23028 20.9503 0.23028 22.1714 1.21376Z" fill="#FCB813"/>
<path d="M22.1846 1.22363C22.2704 1.29299 22.3563 1.36895 22.4356 1.45151C22.3563 1.36895 22.2737 1.29629 22.1846 1.22363Z" fill="#FCB813"/>
<path d="M22.1846 1.22363C22.2704 1.29299 22.3563 1.36895 22.4356 1.45151C22.3563 1.36895 22.2737 1.29629 22.1846 1.22363Z" fill="#FCB813"/>
<path d="M17.7026 1.45151C17.7819 1.37225 17.8678 1.29629 17.9536 1.22363C17.8645 1.29629 17.7819 1.36895 17.7026 1.45151Z" fill="#FCB813"/>
<path d="M17.7026 1.45151C17.7819 1.37225 17.8678 1.29629 17.9536 1.22363C17.8645 1.29629 17.7819 1.36895 17.7026 1.45151Z" fill="#FCB813"/>
<path d="M22.7427 1.81128C22.7792 1.86103 22.819 1.91079 22.8554 1.96385C22.819 1.91079 22.7825 1.86103 22.7427 1.81128Z" fill="#FCB813"/>
<path d="M22.7427 1.81128C22.7792 1.86103 22.819 1.91079 22.8554 1.96385C22.819 1.91079 22.7825 1.86103 22.7427 1.81128Z" fill="#FCB813"/>
<path d="M23.2695 4.79126C23.2597 4.82397 23.2466 4.85341 23.2368 4.88285C23.2499 4.85341 23.2597 4.8207 23.2695 4.79126Z" fill="#FCB813"/>
<path d="M23.2695 4.79126C23.2597 4.82397 23.2466 4.85341 23.2368 4.88285C23.2499 4.85341 23.2597 4.8207 23.2695 4.79126Z" fill="#FCB813"/>
<path d="M22.9141 2.06201C22.9539 2.12503 22.9937 2.18805 23.0268 2.25439C22.9937 2.18805 22.9539 2.12503 22.9141 2.06201Z" fill="#FCB813"/>
<path d="M22.9141 2.06201C22.9539 2.12503 22.9937 2.18805 23.0268 2.25439C22.9937 2.18805 22.9539 2.12503 22.9141 2.06201Z" fill="#FCB813"/>
<path d="M23.2963 4.68542C23.3723 4.4049 23.4152 4.11447 23.4152 3.81085C23.4152 3.2663 23.2798 2.75476 23.0488 2.29932C23.4251 3.04518 23.5076 3.89665 23.2963 4.68542Z" fill="#FCB813"/>
<path d="M23.2963 4.68542C23.3723 4.4049 23.4152 4.11447 23.4152 3.81085C23.4152 3.2663 23.2798 2.75476 23.0488 2.29932C23.4251 3.04518 23.5076 3.89665 23.2963 4.68542Z" fill="#FCB813"/>
<path d="M22.478 1.49756C22.541 1.5639 22.6007 1.62692 22.6571 1.69657C22.6007 1.62692 22.541 1.56058 22.478 1.49756Z" fill="#FCB813"/>
<path d="M22.478 1.49756C22.541 1.5639 22.6007 1.62692 22.6571 1.69657C22.6007 1.62692 22.541 1.56058 22.478 1.49756Z" fill="#FCB813"/>
<path d="M17.9663 1.21369C17.963 1.21699 17.9564 1.22029 17.9531 1.22359C17.8672 1.29289 17.7814 1.3688 17.7022 1.45131C17.095 2.05856 16.7188 2.89353 16.7188 3.81431V7.1641H20.0685C21.5372 7.1641 22.788 6.20702 23.2368 4.8836C23.2467 4.8506 23.2599 4.8209 23.2698 4.7912C23.2797 4.75819 23.2863 4.72189 23.2962 4.68889C23.5074 3.90012 23.4249 3.04535 23.052 2.30608C23.0421 2.28958 23.0355 2.26978 23.0256 2.25328C22.9926 2.18727 22.953 2.12457 22.9134 2.06186C22.8936 2.02886 22.8738 1.99585 22.854 1.96285C22.821 1.91005 22.7814 1.86054 22.7418 1.81104C22.7121 1.77144 22.6857 1.73183 22.656 1.69553C22.5999 1.62622 22.5405 1.56022 22.4777 1.49751C22.4645 1.48101 22.4513 1.46781 22.4348 1.45131C22.3556 1.3721 22.2698 1.29619 22.184 1.22359C22.1807 1.22029 22.1741 1.21699 22.1708 1.21369C20.9497 0.230203 19.1874 0.230203 17.9663 1.21369Z" fill="#F47920"/>
</svg>
